<svg width="31" height="32" viewBox="0 0 31 32" fill="none" xmlns="http://www.w3.org/2000/svg">
<path d="M0 2.98342C0 2.15286 3.12954e-07 1.73757 0.156506 1.41812C0.306355 1.11227 0.553686 0.864937 0.859564 0.715093C1.17903 0.558594 1.59434 0.558594 2.42492 0.558594H28.2703C29.1009 0.558594 29.5162 0.558594 29.8356 0.715093C30.1415 0.864937 30.3889 1.11226 30.5387 1.41812C30.6952 1.73758 30.6952 2.15287 30.6952 2.98342V28.8278C30.6952 29.6584 30.6952 30.0737 30.5387 30.3931C30.3889 30.6989 30.1415 30.9463 29.8356 31.0961C29.5162 31.2526 29.1009 31.2526 28.2703 31.2526H2.42492C1.59433 31.2526 1.17902 31.2526 0.859564 31.0961C0.553694 30.9463 0.306355 30.6989 0.156506 30.3931C3.12954e-07 30.0737 0 29.6584 0 28.8278V2.98342Z" fill="#0000FF"/>
</svg>
