<svg width="36" height="30" viewBox="0 0 36 30" fill="none" xmlns="http://www.w3.org/2000/svg">
<path fill-rule="evenodd" clip-rule="evenodd" d="M1.33777 11.6248H29.9509C30.3095 11.6248 30.6434 11.7608 30.8907 12.0205L35.4164 16.5708C36.2572 17.4117 35.6637 18.846 34.4766 18.846H5.86345C5.50486 18.846 5.171 18.71 4.92369 18.4503L0.398013 13.9C-0.442824 13.0715 0.150707 11.6248 1.33777 11.6248ZM0.385647 5.59059L4.91132 1.04022C5.171 0.780547 5.50486 0.644531 5.85108 0.644531H34.4519C35.6389 0.644531 36.2448 2.07889 35.3916 2.91972L30.8783 7.47009C30.631 7.72976 30.2848 7.86578 29.9386 7.86578H1.33777C0.150707 7.86578 -0.442824 6.43142 0.385647 5.59059ZM35.404 24.905L30.8783 29.4677C30.631 29.715 30.2848 29.8634 29.9386 29.8634H1.33777C0.150707 29.8634 -0.442824 28.429 0.385647 27.5882L4.91132 23.0254C5.171 22.7781 5.50486 22.6298 5.85108 22.6298H34.4519C35.6513 22.6174 36.2572 24.0518 35.404 24.905Z" fill="url(#paint0_linear_2111_545)"/>
<defs>
<linearGradient id="paint0_linear_2111_545" x1="2.03355" y1="31.1151" x2="33.757" y2="-0.608559" gradientUnits="userSpaceOnUse">
<stop stop-color="#CB4EE8"/>
<stop offset="1" stop-color="#10F4B1"/>
</linearGradient>
</defs>
</svg>
