<svg width="90" height="59" viewBox="0 0 90 59" fill="none" xmlns="http://www.w3.org/2000/svg">
<rect y="1" width="90" height="58" fill="none"/>
<path d="M59.9801 11.6391C59.4375 11.5599 59.4117 11.5335 59.6701 11.5071C60.161 11.4279 61.2978 11.5335 62.0987 11.7182C63.959 12.167 65.6385 13.3285 67.4212 15.3611L67.8863 15.9154L68.5581 15.8098C71.426 15.3347 74.3714 15.7042 76.826 16.8657C77.4977 17.1825 78.5571 17.816 78.6863 17.9744C78.7379 18.0272 78.8154 18.3703 78.8671 18.7135C79.048 19.9542 78.9705 20.8781 78.5829 21.5908C78.3762 21.9867 78.3762 22.0923 78.5054 22.4355C78.6087 22.6995 78.9188 22.8843 79.203 22.8843C79.8231 22.8843 80.469 21.8812 80.7791 20.4821L80.9083 19.9278L81.1408 20.1917C82.4585 21.6964 83.492 23.7818 83.647 25.26L83.6987 25.656L83.4661 25.3128C83.0786 24.7057 82.7169 24.3097 82.226 23.9665C81.3475 23.3594 80.4173 23.1746 77.9628 23.0426C75.7408 22.9107 74.4748 22.7259 73.2346 22.3035C71.1159 21.5908 70.0308 20.6669 67.5246 17.2617C66.4136 15.757 65.716 14.9387 65.0184 14.2524C63.494 12.7477 61.9696 11.9558 59.9801 11.6391Z" fill="#FF007A"/>
<path d="M79.2283 14.9923C79.28 13.9893 79.4092 13.3293 79.6934 12.7222C79.7967 12.4846 79.9001 12.2734 79.9259 12.2734C79.9517 12.2734 79.9001 12.4582 79.8226 12.6694C79.6159 13.2501 79.59 14.0684 79.7192 14.9923C79.9001 16.1802 79.9776 16.3386 81.2178 17.6321C81.7862 18.2392 82.458 19.0047 82.7163 19.3215L83.1556 19.9022L82.7163 19.4799C82.1737 18.9519 80.9336 17.9488 80.6493 17.8168C80.4685 17.7113 80.4426 17.7113 80.3135 17.8432C80.2101 17.9488 80.1843 18.1072 80.1843 18.8727C80.1584 20.0606 80.0034 20.7997 79.6159 21.5652C79.4092 21.9612 79.3833 21.882 79.5642 21.4333C79.6934 21.0901 79.7192 20.9317 79.7192 19.7966C79.7192 17.5001 79.4608 16.9457 77.8848 16.0218C77.4972 15.7843 76.8254 15.4411 76.4379 15.2563C76.0245 15.0715 75.7144 14.9132 75.7403 14.9132C75.7919 14.8604 77.3163 15.3091 77.9106 15.5731C78.8149 15.9426 78.9699 15.969 79.0733 15.9426C79.1508 15.8635 79.2025 15.6523 79.2283 14.9923Z" fill="#FF007A"/>
<path d="M61.0394 18.929C59.9542 17.3979 59.2566 15.0222 59.4116 13.2536L59.4633 12.6992L59.7217 12.752C60.1868 12.8312 60.9877 13.148 61.3753 13.3855C62.4088 14.0191 62.8738 14.8902 63.3131 17.0548C63.4422 17.6883 63.6231 18.4274 63.7006 18.665C63.8298 19.0609 64.3207 19.9848 64.7341 20.5656C65.0183 20.9879 64.8375 21.1991 64.1915 21.1463C63.2097 21.0407 61.892 20.1168 61.0394 18.929Z" fill="#FF007A"/>
<path d="M77.9107 30.4103C72.7949 28.2985 70.9863 26.4771 70.9863 23.3886C70.9863 22.9399 71.0122 22.5703 71.0122 22.5703C71.038 22.5703 71.2189 22.7287 71.4514 22.9135C72.4849 23.7582 73.6476 24.1277 76.8772 24.6029C78.7633 24.8933 79.8485 25.1044 80.8303 25.4476C83.9566 26.5035 85.8944 28.6681 86.3595 31.5981C86.4887 32.4429 86.4112 34.0531 86.2045 34.8978C86.0236 35.5577 85.5069 36.772 85.3777 36.7984C85.3518 36.7984 85.3002 36.6664 85.3002 36.4552C85.2485 35.3465 84.7059 34.2907 83.8016 33.4723C82.7164 32.522 81.3212 31.8093 77.9107 30.4103Z" fill="#FF007A"/>
<path d="M74.2937 31.28C74.2421 30.8841 74.1129 30.3825 74.0354 30.1713L73.9062 29.7754L74.1387 30.0658C74.4746 30.4617 74.733 30.9369 74.9655 31.5968C75.1464 32.0983 75.1464 32.2567 75.1464 33.075C75.1464 33.867 75.1205 34.0517 74.9655 34.5005C74.7071 35.2132 74.3971 35.7148 73.8804 36.2691C72.9502 37.2458 71.7359 37.7737 70.0048 38.0113C69.6947 38.0377 68.8163 38.1169 68.0411 38.1697C66.1033 38.2753 64.8115 38.4865 63.6488 38.9088C63.4938 38.9616 63.3388 39.0144 63.3129 38.988C63.2613 38.9352 64.0622 38.4601 64.7081 38.1433C65.6124 37.6945 66.5426 37.457 68.5837 37.0874C69.5914 36.929 70.6249 36.7178 70.8832 36.6123C73.4411 35.7939 74.7071 33.7614 74.2937 31.28Z" fill="#FF007A"/>
<path d="M76.6447 35.5286C75.973 34.024 75.8179 32.5985 76.1796 31.2523C76.2313 31.1203 76.283 30.9883 76.3347 30.9883C76.3863 30.9883 76.5414 31.0675 76.6964 31.1731C77.0064 31.3842 77.6524 31.7538 79.306 32.6777C81.3988 33.8392 82.5873 34.7367 83.4141 35.7662C84.1375 36.6637 84.5768 37.6932 84.7834 38.9602C84.9126 39.673 84.8351 41.3888 84.6543 42.1015C84.0858 44.3453 82.794 46.1403 80.9079 47.1697C80.6237 47.3281 80.3911 47.4337 80.3653 47.4337C80.3394 47.4337 80.4428 47.1697 80.5978 46.853C81.2179 45.5067 81.2954 44.2133 80.8304 42.7614C80.5461 41.8639 79.9519 40.7816 78.7634 38.9602C77.3423 36.8485 77.0064 36.2941 76.6447 35.5286Z" fill="#FF007A"/>
<path d="M57.3956 43.6098C59.3076 41.9731 61.6588 40.8117 63.8291 40.4421C64.7592 40.2837 66.3095 40.3365 67.1621 40.5741C68.5315 40.9436 69.7716 41.7356 70.4176 42.7123C71.0377 43.6626 71.3219 44.4809 71.6061 46.3023C71.7094 47.015 71.8386 47.7541 71.8645 47.9125C72.0712 48.8628 72.4846 49.6019 73.0013 49.9979C73.8023 50.605 75.1975 50.6314 76.5668 50.1035C76.7994 50.0243 77.0061 49.9451 77.0061 49.9715C77.0577 50.0243 76.3601 50.4994 75.8951 50.737C75.2491 51.0802 74.7324 51.1857 74.0348 51.1857C72.7946 51.1857 71.7353 50.5258 70.8826 49.206C70.7018 48.942 70.3401 48.1765 70.03 47.4637C69.1257 45.3256 68.6606 44.692 67.6013 43.9793C66.6712 43.3722 65.4827 43.2402 64.5784 43.6889C63.3898 44.2697 63.0798 45.8271 63.9066 46.7774C64.2425 47.1734 64.8626 47.4901 65.3793 47.5693C66.3353 47.7013 67.1621 46.9358 67.1621 45.9591C67.1621 45.3256 66.9295 44.956 66.3095 44.6656C65.4827 44.2961 64.5784 44.7184 64.6042 45.5368C64.6042 45.8799 64.7592 46.0911 65.0951 46.2495C65.3018 46.3551 65.3018 46.3551 65.1468 46.3287C64.3975 46.1703 64.2166 45.22 64.8109 44.6129C65.5343 43.8737 67.0587 44.1905 67.5755 45.22C67.7822 45.6423 67.808 46.4871 67.6272 47.015C67.1879 48.1765 65.9477 48.7836 64.6817 48.4404C63.8291 48.2029 63.4674 47.9653 62.4339 46.883C60.6253 44.9824 59.9277 44.6129 57.3439 44.2169L56.853 44.1377L57.3956 43.6098Z" fill="#FF007A"/>
<path fill-rule="evenodd" clip-rule="evenodd" d="M43.8059 1.13508C49.826 8.60548 59.1015 20.2202 59.5666 20.8538C59.9542 21.3817 59.7991 21.8833 59.1532 22.2528C58.7915 22.464 58.0422 22.6752 57.6805 22.6752C57.2671 22.6752 56.7762 22.464 56.4403 22.1208C56.2078 21.8833 55.2001 20.3786 52.9264 16.7622C51.1953 13.9905 49.7226 11.6939 49.6968 11.6676C49.5934 11.6148 49.5934 11.6148 52.7456 17.3693C54.735 20.9858 55.381 22.2792 55.381 22.4376C55.381 22.7808 55.2776 22.9655 54.8642 23.4407C54.1666 24.2326 53.8566 25.1301 53.624 27.0043C53.3657 29.0897 52.6681 30.5679 50.6786 33.0757C49.5159 34.5539 49.3351 34.8179 49.0508 35.425C48.6891 36.1641 48.5858 36.5865 48.5341 37.5368C48.4824 38.5399 48.5858 39.1734 48.87 40.1237C49.1284 40.9684 49.4126 41.5228 50.1102 42.605C50.7044 43.5553 51.0661 44.2681 51.0661 44.532C51.0661 44.7432 51.1178 44.7432 52.048 44.532C54.27 44.0041 56.1044 43.1066 57.1121 41.9979C57.7322 41.3116 57.8872 40.942 57.8872 39.9917C57.8872 39.3846 57.8613 39.2526 57.7063 38.883C57.4479 38.3023 56.957 37.8272 55.8977 37.088C54.5025 36.1113 53.9082 35.3194 53.7532 34.2635C53.624 33.366 53.7791 32.7589 54.5542 31.0959C55.3551 29.3801 55.5618 28.6673 55.691 26.9251C55.7685 25.8164 55.8977 25.3677 56.2078 25.0245C56.5436 24.655 56.8279 24.523 57.6288 24.4174C58.9465 24.2326 59.7991 23.8894 60.4709 23.2295C61.0652 22.6752 61.3235 22.1208 61.3494 21.3025L61.3752 20.6954L61.0393 20.3258C59.825 18.9004 43.0049 0 42.9274 0C42.9016 0 43.315 0.501546 43.8059 1.13508ZM51.7379 38.6719C52.0221 38.1703 51.8671 37.5368 51.402 37.22C50.9628 36.9296 50.291 37.0616 50.291 37.4576C50.291 37.5632 50.3427 37.6688 50.4977 37.7216C50.7303 37.8535 50.7561 37.9855 50.5752 38.2759C50.3944 38.5663 50.3944 38.8302 50.6269 39.015C50.9886 39.3054 51.4795 39.147 51.7379 38.6719Z" fill="#FF007A"/>
<path fill-rule="evenodd" clip-rule="evenodd" d="M62.2018 24.7891C61.5817 24.9739 60.9874 25.6602 60.8066 26.3466C60.7032 26.7689 60.7549 27.5344 60.9358 27.772C61.22 28.1416 61.4783 28.2472 62.2018 28.2472C63.6228 28.2472 64.8372 27.6136 64.9664 26.8481C65.0956 26.2146 64.553 25.3435 63.8037 24.9475C63.4161 24.7363 62.6152 24.6572 62.2018 24.7891ZM63.8554 26.109C64.0621 25.7922 63.9846 25.4491 63.597 25.2115C62.8994 24.7627 61.8401 25.1323 61.8401 25.8186C61.8401 26.1618 62.3827 26.5313 62.8994 26.5313C63.2353 26.5313 63.7004 26.3202 63.8554 26.109Z" fill="#FF007A"/>
<path d="M17.5154 4.4502L33.0756 30.1631L17.5731 23.5372L17.5154 4.4502Z" fill="#2F3030"/>
<path d="M1.99976 30.1631L17.5172 4.4502L17.5748 23.5372L1.99976 30.1631Z" fill="#828384"/>
<path d="M17.5172 39.6425L1.99976 30.1617L17.5748 23.5358L17.5172 39.6425Z" fill="#343535"/>
<path d="M33.0756 30.1617L17.5731 23.5358L17.5154 39.6425L33.0756 30.1617Z" fill="#131313"/>
<path d="M17.5154 42.9058L33.0756 33.6816L17.5154 55.6069V42.9058Z" fill="#2F3030"/>
<path d="M17.5172 42.9058L1.99976 33.6816L17.5172 55.6069V42.9058Z" fill="#828384"/>
</svg>
