<svg width="39" height="39" viewBox="0 0 39 39" fill="none" xmlns="http://www.w3.org/2000/svg">
<path d="M38.968 19.1841C38.968 29.7803 30.3801 38.3681 19.7838 38.3681C9.18754 38.3681 0.599609 29.7803 0.599609 19.1841C0.599609 8.58787 9.18754 0 19.7838 0C30.3801 0 38.968 8.58787 38.968 19.1841Z" fill="#FFD15C"/>
<path d="M15.0996 11.4108C14.3202 11.5232 14.7549 12.1902 14.7549 12.1902L14.7324 12.3775C15.849 14.3034 17.6925 16.3267 19.5734 17.6756C20.9598 18.6648 21.9939 20.1261 22.496 21.7897C22.9906 23.4308 22.9007 25.1319 22.2562 26.4508C21.4768 28.0395 20.0006 28.9613 18.1121 29.0512C16.2312 29.1411 13.998 28.3992 11.4726 26.848C11.4501 26.908 11.4201 26.9679 11.3901 27.0204C13.5783 29.276 16.1113 30.6249 18.7416 30.9321C21.4019 31.2469 24.1297 30.4975 26.4378 28.8414C26.3778 28.8414 26.3328 28.8264 26.2954 28.8039C34.059 22.3892 21.3494 10.5191 15.0996 11.4108Z" fill="white"/>
<path d="M35.2664 20.0392C35.2589 19.8968 35.2514 19.7245 35.2214 19.5222C35.124 18.7353 34.8093 17.5288 33.895 16.2474C33.85 16.1874 33.8051 16.1275 33.7601 16.0675C33.7526 16.0525 33.7376 16.0375 33.7301 16.0226C33.6927 15.9701 33.6477 15.9176 33.6102 15.8652L33.6027 15.8577C33.5578 15.8052 33.5128 15.7453 33.4679 15.6928C33.4604 15.6778 33.4454 15.6704 33.4379 15.6554C33.4004 15.6104 33.3555 15.5579 33.318 15.513C33.313 15.508 33.308 15.503 33.303 15.498C33.258 15.4455 33.2131 15.4006 33.1681 15.3481C33.1606 15.3406 33.1456 15.3256 33.1381 15.3181C33.1007 15.2732 33.0632 15.2357 33.0257 15.1982C33.0182 15.1908 33.0107 15.1833 33.0107 15.1758C32.9658 15.1308 32.9208 15.0858 32.8833 15.0484C32.8758 15.0409 32.8684 15.0334 32.8534 15.0184C32.8159 14.9809 32.7784 14.9435 32.741 14.9135C32.7335 14.906 32.726 14.8985 32.7185 14.891C32.6735 14.8535 32.636 14.8161 32.5911 14.7786C32.5836 14.7711 32.5761 14.7636 32.5686 14.7561C32.5311 14.7261 32.4937 14.6962 32.4637 14.6662C32.4562 14.6587 32.4487 14.6512 32.4412 14.6437C32.4037 14.6062 32.3588 14.5763 32.3213 14.5463C32.3138 14.5388 32.3063 14.5313 32.2988 14.5238C32.2688 14.4938 32.2314 14.4713 32.2014 14.4414C32.1939 14.4339 32.1789 14.4264 32.1714 14.4189C32.134 14.3889 32.0965 14.3589 32.059 14.3365C32.0515 14.329 32.044 14.3215 32.0365 14.3215C32.0066 14.299 31.9766 14.2765 31.9466 14.254C31.9391 14.2465 31.9241 14.239 31.9166 14.2315C31.8792 14.2091 31.8492 14.1866 31.8117 14.1566C31.8042 14.1491 31.7967 14.1416 31.7817 14.1416C31.7518 14.1266 31.7293 14.1042 31.7068 14.0892C31.6918 14.0817 31.6843 14.0742 31.6693 14.0667C31.6394 14.0517 31.6094 14.0292 31.5869 14.0142C31.5719 14.0067 31.5569 13.9992 31.5494 13.9917C31.527 13.9768 31.512 13.9693 31.4895 13.9543L31.4445 13.9318C31.4295 13.9243 31.4071 13.9093 31.3921 13.9018C31.3696 13.8868 31.3471 13.8718 31.3171 13.8644C31.3021 13.8569 31.2946 13.8494 31.2797 13.8419C31.2647 13.8344 31.2497 13.8269 31.2272 13.8194C31.2197 13.8119 31.2122 13.8119 31.2047 13.8044C31.1747 13.7894 31.1373 13.7669 31.1073 13.7519H31.0998C30.8975 13.3922 30.6727 13.0325 30.4329 12.6728C27.6377 8.58124 24.5727 6.59538 21.0731 6.58789H21.0581C19.5743 6.58789 18.2179 6.92511 17.0863 7.25484C16.7641 7.35226 16.4269 7.44968 16.1046 7.55459C15.2803 7.80938 14.501 8.05667 13.834 8.16158C13.4144 8.22903 13.0846 8.3864 12.8523 8.6262C12.6425 8.85101 12.5151 9.15826 12.4776 9.53295C12.4027 10.2598 12.665 11.2415 13.2345 12.3656C14.3811 14.6437 16.5768 17.1541 18.8249 18.7653C19.0872 18.9526 19.327 19.155 19.5518 19.3798C19.5068 19.3873 19.4619 19.3948 19.4094 19.4023C17.6484 19.657 16.7266 21.5455 16.3594 22.5721C16.262 22.8419 16.5243 23.0817 16.7941 22.9843C17.8882 22.6171 20.1138 22.0176 21.3653 22.7894C21.3728 22.7894 21.3878 22.7819 21.3953 22.7819C21.6201 23.906 21.5152 25.0151 21.088 25.8769C20.526 27.0084 19.4544 27.6754 18.068 27.7428C16.4344 27.8253 14.426 27.1283 12.0954 25.6745L12.058 25.6521C12.0355 25.6446 12.013 25.6296 11.998 25.6146C13.8115 23.5538 12.7399 20.3764 12.3203 19.3348C12.2678 19.1999 12.073 19.1999 11.998 19.3273C11.0238 20.9834 9.01548 20.856 9.05295 22.8269V22.8194C7.5242 21.5755 6.38514 23.2316 4.48171 22.9843C4.33183 22.9618 4.21942 23.1117 4.29436 23.2391C4.87139 24.2357 6.8048 27.1583 9.65995 26.8286L9.52506 26.926L10.0346 27.488C12.5301 30.2383 15.4976 31.8869 18.6226 32.2541C19.0722 32.3065 19.5218 32.3365 19.9715 32.3365C22.5868 32.3365 25.1872 31.4597 27.4203 29.7961C29.9832 27.8927 31.7593 25.2024 32.4262 22.2274C32.651 21.2382 32.741 20.2491 32.7035 19.2674C33.2655 19.0426 33.88 19.2898 34.3671 19.6196C34.3746 19.6196 34.3746 19.6271 34.3821 19.6271C34.4046 19.6421 34.4196 19.657 34.4421 19.6645C34.4496 19.6645 34.4496 19.672 34.457 19.672C34.517 19.7095 34.5695 19.7545 34.6219 19.7919C34.6294 19.7994 34.6444 19.8069 34.6519 19.8144C34.6669 19.8219 34.6744 19.8369 34.6894 19.8444C34.7043 19.8519 34.7118 19.8669 34.7268 19.8744C34.7343 19.8819 34.7493 19.8894 34.7568 19.9043C34.7793 19.9193 34.8018 19.9418 34.8168 19.9568C34.8242 19.9643 34.8317 19.9718 34.8392 19.9718C34.8542 19.9868 34.8692 20.0018 34.8842 20.0093L34.9067 20.0317C34.9217 20.0467 34.9367 20.0542 34.9516 20.0692C34.9591 20.0767 34.9666 20.0767 34.9666 20.0842L35.0191 20.1366C35.0266 20.1441 35.0341 20.1441 35.0341 20.1516C35.0715 20.1816 35.1165 20.1891 35.154 20.1891C35.1989 20.1966 35.2739 20.1292 35.2664 20.0392ZM26.2963 28.8144C26.3337 28.8369 26.3787 28.8444 26.4386 28.8519C24.1305 30.5155 21.4028 31.2574 18.7425 30.9427C16.1046 30.6354 13.5792 29.2866 11.391 27.0309C11.421 26.971 11.451 26.9185 11.4735 26.8586C13.9989 28.4098 16.232 29.1517 18.113 29.0617C20.0014 28.9718 21.4777 28.0426 22.2571 26.4614C22.909 25.1425 22.9915 23.4489 22.4969 21.8003C21.9948 20.1366 20.9606 18.6754 19.5743 17.6862C17.6858 16.3373 15.8499 14.314 14.7333 12.3881L14.7558 12.2007C14.7558 12.2007 14.3211 11.5338 15.1005 11.4214C21.3503 10.5221 34.0599 22.3923 26.2963 28.8144Z" fill="black"/>
<path d="M21.6045 10.9714C21.3872 10.6642 20.9525 9.83984 22.3014 9.83984C23.6503 9.83984 25.7036 11.3611 26.1233 11.9231C25.9959 12.2678 25.1266 12.3428 24.6919 12.3128C24.2573 12.2828 23.5229 12.2079 22.9534 11.9231C22.3913 11.6533 21.8218 11.2786 21.6045 10.9714Z" fill="white"/>
</svg>
