<svg width="90" height="58" viewBox="0 0 90 58" fill="none" xmlns="http://www.w3.org/2000/svg">
<rect width="90" height="58" fill="none"/>
<path fill-rule="evenodd" clip-rule="evenodd" d="M3.3378 25.6249H31.951C32.3096 25.6249 32.6434 25.7609 32.8907 26.0206L37.4164 30.571C38.2572 31.4118 37.6637 32.8462 36.4766 32.8462H7.86348C7.50489 32.8462 7.17103 32.7101 6.92372 32.4505L2.39804 27.9001C1.55721 27.0716 2.15074 25.6249 3.3378 25.6249ZM2.38568 19.5907L6.91136 15.0403C7.17103 14.7807 7.50489 14.6447 7.85111 14.6447H36.4519C37.639 14.6447 38.2449 16.079 37.3917 16.9198L32.8784 21.4702C32.6311 21.7299 32.2848 21.8659 31.9386 21.8659H3.3378C2.15074 21.8659 1.55721 20.4315 2.38568 19.5907ZM37.404 38.9051L32.8784 43.4678C32.6311 43.7151 32.2848 43.8635 31.9386 43.8635H3.3378C2.15074 43.8635 1.55721 42.4291 2.38568 41.5883L6.91136 37.0256C7.17103 36.7783 7.50489 36.6299 7.85111 36.6299H36.4519C37.6513 36.6175 38.2572 38.0519 37.404 38.9051Z" fill="url(#paint0_linear_2169_1261)"/>
<path d="M88.9683 29.1837C88.9683 39.7799 80.3804 48.3678 69.7841 48.3678C59.1878 48.3678 50.5999 39.7799 50.5999 29.1837C50.5999 18.5875 59.1878 9.99963 69.7841 9.99963C80.3804 9.99963 88.9683 18.5875 88.9683 29.1837Z" fill="#FFD15C"/>
<path d="M65.0998 21.4106C64.3205 21.523 64.7551 22.1899 64.7551 22.1899L64.7326 22.3773C65.8492 24.3032 67.6927 26.3265 69.5736 27.6754C70.96 28.6646 71.9942 30.1258 72.4962 31.7895C72.9908 33.4306 72.9009 35.1317 72.2564 36.4506C71.4771 38.0393 70.0008 38.961 68.1123 39.0509C66.2314 39.1409 63.9982 38.399 61.4728 36.8478C61.4503 36.9077 61.4204 36.9677 61.3904 37.0201C63.5786 39.2757 66.1115 40.6246 68.7418 40.9319C71.4021 41.2466 74.1299 40.4972 76.438 38.8411C76.378 38.8411 76.3331 38.8261 76.2956 38.8036C84.0592 32.389 71.3497 20.5188 65.0998 21.4106Z" fill="white"/>
<path d="M85.2667 30.0391C85.2592 29.8967 85.2517 29.7244 85.2217 29.522C85.1243 28.7352 84.8095 27.5287 83.8953 26.2473C83.8503 26.1873 83.8054 26.1273 83.7604 26.0674C83.7529 26.0524 83.7379 26.0374 83.7304 26.0224C83.693 25.97 83.648 25.9175 83.6105 25.8651L83.603 25.8576C83.5581 25.8051 83.5131 25.7452 83.4681 25.6927C83.4606 25.6777 83.4457 25.6702 83.4382 25.6552C83.4007 25.6103 83.3557 25.5578 83.3183 25.5129C83.3133 25.5079 83.3083 25.5029 83.3033 25.4979C83.2583 25.4454 83.2133 25.4005 83.1684 25.348C83.1609 25.3405 83.1459 25.3255 83.1384 25.318C83.1009 25.2731 83.0635 25.2356 83.026 25.1981C83.0185 25.1906 83.011 25.1831 83.011 25.1756C82.966 25.1307 82.9211 25.0857 82.8836 25.0482C82.8761 25.0408 82.8686 25.0333 82.8536 25.0183C82.8162 24.9808 82.7787 24.9433 82.7412 24.9134C82.7337 24.9059 82.7262 24.8984 82.7188 24.8909C82.6738 24.8534 82.6363 24.8159 82.5914 24.7785C82.5839 24.771 82.5764 24.7635 82.5689 24.756C82.5314 24.726 82.4939 24.696 82.464 24.6661C82.4565 24.6586 82.449 24.6511 82.4415 24.6436C82.404 24.6061 82.359 24.5761 82.3216 24.5462C82.3141 24.5387 82.3066 24.5312 82.2991 24.5237C82.2691 24.4937 82.2317 24.4712 82.2017 24.4412C82.1942 24.4338 82.1792 24.4263 82.1717 24.4188C82.1342 24.3888 82.0968 24.3588 82.0593 24.3363C82.0518 24.3288 82.0443 24.3213 82.0368 24.3213C82.0068 24.2989 81.9769 24.2764 81.9469 24.2539C81.9394 24.2464 81.9244 24.2389 81.9169 24.2314C81.8794 24.2089 81.8495 24.1865 81.812 24.1565C81.8045 24.149 81.797 24.1415 81.782 24.1415C81.752 24.1265 81.7296 24.104 81.7071 24.089C81.6921 24.0815 81.6846 24.0741 81.6696 24.0666C81.6396 24.0516 81.6097 24.0291 81.5872 24.0141C81.5722 24.0066 81.5572 23.9991 81.5497 23.9916C81.5272 23.9766 81.5122 23.9691 81.4898 23.9542L81.4448 23.9317C81.4298 23.9242 81.4073 23.9092 81.3923 23.9017C81.3699 23.8867 81.3474 23.8717 81.3174 23.8642C81.3024 23.8567 81.2949 23.8492 81.2799 23.8417C81.2649 23.8343 81.25 23.8268 81.2275 23.8193C81.22 23.8118 81.2125 23.8118 81.205 23.8043C81.175 23.7893 81.1376 23.7668 81.1076 23.7518H81.1001C80.8978 23.3921 80.6729 23.0324 80.4331 22.6727C77.6379 18.5811 74.573 16.5953 71.0733 16.5878H71.0583C69.5746 16.5878 68.2182 16.925 67.0866 17.2547C66.7644 17.3521 66.4272 17.4496 66.1049 17.5545C65.2806 17.8093 64.5012 18.0565 63.8343 18.1615C63.4146 18.2289 63.0849 18.3863 62.8526 18.6261C62.6428 18.8509 62.5154 19.1581 62.4779 19.5328C62.403 20.2597 62.6652 21.2414 63.2348 22.3655C64.3813 24.6436 66.577 27.154 68.8252 28.7652C69.0875 28.9525 69.3273 29.1548 69.5521 29.3797C69.5071 29.3871 69.4622 29.3946 69.4097 29.4021C67.6486 29.6569 66.7269 31.5454 66.3597 32.572C66.2623 32.8418 66.5246 33.0816 66.7944 32.9842C67.8885 32.617 70.1141 32.0175 71.3656 32.7893C71.3731 32.7893 71.3881 32.7818 71.3956 32.7818C71.6204 33.9059 71.5155 35.015 71.0883 35.8768C70.5263 37.0083 69.4547 37.6753 68.0683 37.7427C66.4346 37.8251 64.4263 37.1282 62.0957 35.6744L62.0582 35.6519C62.0358 35.6444 62.0133 35.6295 61.9983 35.6145C63.8118 33.5537 62.7402 30.3763 62.3205 29.3347C62.2681 29.1998 62.0732 29.1998 61.9983 29.3272C61.0241 30.9833 59.0158 30.8559 59.0532 32.8268V32.8193C57.5245 31.5753 56.3854 33.2315 54.482 32.9842C54.3321 32.9617 54.2197 33.1116 54.2946 33.2389C54.8717 34.2356 56.8051 37.1582 59.6602 36.8285L59.5253 36.9259L60.0349 37.4879C62.5304 40.2381 65.4979 41.8868 68.6228 42.254C69.0725 42.3064 69.5221 42.3364 69.9717 42.3364C72.5871 42.3364 75.1874 41.4596 77.4206 39.796C79.9835 37.8926 81.7595 35.2023 82.4265 32.2273C82.6513 31.2381 82.7412 30.2489 82.7038 29.2672C83.2658 29.0424 83.8803 29.2897 84.3674 29.6195C84.3749 29.6195 84.3749 29.6269 84.3824 29.6269C84.4049 29.6419 84.4199 29.6569 84.4423 29.6644C84.4498 29.6644 84.4498 29.6719 84.4573 29.6719C84.5173 29.7094 84.5697 29.7543 84.6222 29.7918C84.6297 29.7993 84.6447 29.8068 84.6522 29.8143C84.6671 29.8218 84.6746 29.8368 84.6896 29.8443C84.7046 29.8518 84.7121 29.8667 84.7271 29.8742C84.7346 29.8817 84.7496 29.8892 84.7571 29.9042C84.7796 29.9192 84.802 29.9417 84.817 29.9567C84.8245 29.9642 84.832 29.9717 84.8395 29.9717C84.8545 29.9866 84.8695 30.0016 84.8845 30.0091L84.907 30.0316C84.9219 30.0466 84.9369 30.0541 84.9519 30.0691C84.9594 30.0766 84.9669 30.0766 84.9669 30.0841L85.0194 30.1365C85.0269 30.144 85.0343 30.144 85.0343 30.1515C85.0718 30.1815 85.1168 30.189 85.1542 30.189C85.1992 30.1965 85.2742 30.129 85.2667 30.0391ZM76.2965 38.8143C76.334 38.8368 76.379 38.8443 76.4389 38.8518C74.1308 40.5154 71.4031 41.2573 68.7427 40.9426C66.1049 40.6353 63.5795 39.2864 61.3913 37.0308C61.4213 36.9709 61.4512 36.9184 61.4737 36.8584C63.9992 38.4097 66.2323 39.1515 68.1133 39.0616C70.0017 38.9717 71.478 38.0425 72.2574 36.4613C72.9093 35.1424 72.9918 33.4488 72.4972 31.8001C71.9951 30.1365 70.9609 28.6752 69.5746 27.6861C67.6861 26.3372 65.8501 24.3139 64.7335 22.388L64.756 22.2006C64.756 22.2006 64.3214 21.5337 65.1007 21.4213C71.3506 20.522 84.0601 32.3922 76.2965 38.8143Z" fill="#171C1F"/>
<path d="M71.6047 20.9716C71.3874 20.6644 70.9528 19.8401 72.3016 19.8401C73.6505 19.8401 75.7038 21.3613 76.1235 21.9234C75.9961 22.2681 75.1268 22.343 74.6922 22.313C74.2575 22.2831 73.5231 22.2081 72.9536 21.9234C72.3916 21.6536 71.822 21.2789 71.6047 20.9716Z" fill="white"/>
<defs>
<linearGradient id="paint0_linear_2169_1261" x1="4.03358" y1="45.1152" x2="35.757" y2="13.3916" gradientUnits="userSpaceOnUse">
<stop stop-color="#CB4EE8"/>
<stop offset="1" stop-color="#10F4B1"/>
</linearGradient>
</defs>
</svg>
