<svg width="45" height="52" viewBox="0 0 45 52" fill="none" xmlns="http://www.w3.org/2000/svg">
<path d="M17.9806 11.6391C17.438 11.5599 17.4122 11.5335 17.6705 11.5071C18.1614 11.4279 19.2983 11.5335 20.0992 11.7182C21.9595 12.167 23.6389 13.3285 25.4217 15.3611L25.8868 15.9154L26.5585 15.8098C29.4265 15.3347 32.3719 15.7042 34.8265 16.8657C35.4982 17.1825 36.5576 17.816 36.6867 17.9744C36.7384 18.0272 36.8159 18.3703 36.8676 18.7135C37.0485 19.9542 36.971 20.8781 36.5834 21.5908C36.3767 21.9867 36.3767 22.0923 36.5059 22.4355C36.6092 22.6995 36.9193 22.8843 37.2035 22.8843C37.8236 22.8843 38.4695 21.8812 38.7796 20.4821L38.9087 19.9278L39.1413 20.1917C40.459 21.6964 41.4925 23.7818 41.6475 25.26L41.6992 25.656L41.4666 25.3128C41.0791 24.7057 40.7174 24.3097 40.2264 23.9665C39.348 23.3594 38.4178 23.1746 35.9633 23.0426C33.7413 22.9107 32.4753 22.7259 31.2351 22.3035C29.1164 21.5908 28.0313 20.6669 25.5251 17.2617C24.4141 15.757 23.7165 14.9387 23.0188 14.2524C21.4944 12.7477 19.9701 11.9558 17.9806 11.6391Z" fill="#FF007A"/>
<path d="M37.2288 14.9923C37.2805 13.9893 37.4096 13.3293 37.6939 12.7222C37.7972 12.4846 37.9006 12.2734 37.9264 12.2734C37.9522 12.2734 37.9006 12.4582 37.823 12.6694C37.6163 13.2501 37.5905 14.0684 37.7197 14.9923C37.9006 16.1802 37.9781 16.3386 39.2183 17.6321C39.7867 18.2392 40.4584 19.0047 40.7168 19.3215L41.156 19.9022L40.7168 19.4799C40.1742 18.9519 38.934 17.9488 38.6498 17.8168C38.469 17.7113 38.4431 17.7113 38.314 17.8432C38.2106 17.9488 38.1848 18.1072 38.1848 18.8727C38.1589 20.0606 38.0039 20.7997 37.6163 21.5652C37.4096 21.9612 37.3838 21.882 37.5647 21.4333C37.6939 21.0901 37.7197 20.9317 37.7197 19.7966C37.7197 17.5001 37.4613 16.9457 35.8853 16.0218C35.4977 15.7843 34.8259 15.4411 34.4384 15.2563C34.025 15.0715 33.7149 14.9132 33.7408 14.9132C33.7924 14.8604 35.3168 15.3091 35.9111 15.5731C36.8154 15.9426 36.9704 15.969 37.0738 15.9426C37.1513 15.8635 37.203 15.6523 37.2288 14.9923Z" fill="#FF007A"/>
<path d="M19.0399 18.929C17.9547 17.3979 17.2571 15.0222 17.4121 13.2536L17.4638 12.6992L17.7222 12.752C18.1872 12.8312 18.9882 13.148 19.3758 13.3855C20.4092 14.0191 20.8743 14.8902 21.3136 17.0548C21.4427 17.6883 21.6236 18.4274 21.7011 18.665C21.8303 19.0609 22.3212 19.9848 22.7346 20.5656C23.0188 20.9879 22.8379 21.1991 22.192 21.1463C21.2102 21.0407 19.8925 20.1168 19.0399 18.929Z" fill="#FF007A"/>
<path d="M35.9112 30.4103C30.7954 28.2985 28.9868 26.4771 28.9868 23.3886C28.9868 22.9399 29.0127 22.5703 29.0127 22.5703C29.0385 22.5703 29.2194 22.7287 29.4519 22.9135C30.4854 23.7582 31.6481 24.1277 34.8777 24.6029C36.7638 24.8933 37.849 25.1044 38.8308 25.4476C41.9571 26.5035 43.8949 28.6681 44.36 31.5981C44.4892 32.4429 44.4116 34.0531 44.2049 34.8978C44.0241 35.5577 43.5073 36.772 43.3782 36.7984C43.3523 36.7984 43.3006 36.6664 43.3006 36.4552C43.249 35.3465 42.7064 34.2907 41.8021 33.4723C40.7169 32.522 39.3217 31.8093 35.9112 30.4103Z" fill="#FF007A"/>
<path d="M32.2942 31.28C32.2426 30.8841 32.1134 30.3825 32.0359 30.1713L31.9067 29.7754L32.1392 30.0658C32.4751 30.4617 32.7335 30.9369 32.966 31.5968C33.1469 32.0983 33.1469 32.2567 33.1469 33.075C33.1469 33.867 33.121 34.0517 32.966 34.5005C32.7076 35.2132 32.3976 35.7148 31.8808 36.2691C30.9507 37.2458 29.7364 37.7737 28.0053 38.0113C27.6952 38.0377 26.8167 38.1169 26.0416 38.1697C24.1038 38.2753 22.812 38.4865 21.6493 38.9088C21.4943 38.9616 21.3393 39.0144 21.3134 38.988C21.2617 38.9352 22.0627 38.4601 22.7086 38.1433C23.6129 37.6945 24.5431 37.457 26.5842 37.0874C27.5919 36.929 28.6253 36.7178 28.8837 36.6123C31.4416 35.7939 32.7076 33.7614 32.2942 31.28Z" fill="#FF007A"/>
<path d="M34.6452 35.5286C33.9734 34.024 33.8184 32.5985 34.1801 31.2523C34.2318 31.1203 34.2835 30.9883 34.3352 30.9883C34.3868 30.9883 34.5419 31.0675 34.6969 31.1731C35.0069 31.3842 35.6529 31.7538 37.3064 32.6777C39.3993 33.8392 40.5878 34.7367 41.4146 35.7662C42.138 36.6637 42.5772 37.6932 42.7839 38.9602C42.9131 39.673 42.8356 41.3888 42.6548 42.1015C42.0863 44.3453 40.7945 46.1403 38.9084 47.1697C38.6241 47.3281 38.3916 47.4337 38.3658 47.4337C38.3399 47.4337 38.4433 47.1697 38.5983 46.853C39.2184 45.5067 39.2959 44.2133 38.8308 42.7614C38.5466 41.8639 37.9524 40.7816 36.7639 38.9602C35.3428 36.8485 35.0069 36.2941 34.6452 35.5286Z" fill="#FF007A"/>
<path d="M15.3961 43.6098C17.3081 41.9731 19.6592 40.8117 21.8296 40.4421C22.7597 40.2837 24.3099 40.3365 25.1626 40.5741C26.5319 40.9436 27.7721 41.7356 28.4181 42.7123C29.0382 43.6626 29.3224 44.4809 29.6066 46.3023C29.7099 47.015 29.8391 47.7541 29.8649 47.9125C30.0716 48.8628 30.485 49.6019 31.0018 49.9979C31.8027 50.605 33.198 50.6314 34.5673 50.1035C34.7999 50.0243 35.0066 49.9451 35.0066 49.9715C35.0582 50.0243 34.3606 50.4994 33.8956 50.737C33.2496 51.0802 32.7329 51.1857 32.0353 51.1857C30.7951 51.1857 29.7358 50.5258 28.8831 49.206C28.7023 48.942 28.3406 48.1765 28.0305 47.4637C27.1262 45.3256 26.6611 44.692 25.6018 43.9793C24.6717 43.3722 23.4832 43.2402 22.5788 43.6889C21.3903 44.2697 21.0803 45.8271 21.9071 46.7774C22.243 47.1734 22.8631 47.4901 23.3798 47.5693C24.3358 47.7013 25.1626 46.9358 25.1626 45.9591C25.1626 45.3256 24.93 44.956 24.3099 44.6656C23.4832 44.2961 22.5788 44.7184 22.6047 45.5368C22.6047 45.8799 22.7597 46.0911 23.0956 46.2495C23.3023 46.3551 23.3023 46.3551 23.1473 46.3287C22.398 46.1703 22.2171 45.22 22.8114 44.6129C23.5348 43.8737 25.0592 44.1905 25.576 45.22C25.7827 45.6423 25.8085 46.4871 25.6276 47.015C25.1884 48.1765 23.9482 48.7836 22.6822 48.4404C21.8296 48.2029 21.4678 47.9653 20.4344 46.883C18.6258 44.9824 17.9281 44.6129 15.3444 44.2169L14.8535 44.1377L15.3961 43.6098Z" fill="#FF007A"/>
<path fill-rule="evenodd" clip-rule="evenodd" d="M1.80637 1.13508C7.82645 8.60548 17.102 20.2202 17.5671 20.8538C17.9546 21.3817 17.7996 21.8833 17.1537 22.2528C16.792 22.464 16.0427 22.6752 15.681 22.6752C15.2676 22.6752 14.7767 22.464 14.4408 22.1208C14.2082 21.8833 13.2006 20.3786 10.9269 16.7622C9.19582 13.9905 7.7231 11.6939 7.69726 11.6676C7.59391 11.6148 7.59391 11.6148 10.7461 17.3693C12.7355 20.9858 13.3815 22.2792 13.3815 22.4376C13.3815 22.7808 13.2781 22.9655 12.8647 23.4407C12.1671 24.2326 11.8571 25.1301 11.6245 27.0043C11.3661 29.0897 10.6685 30.5679 8.67908 33.0757C7.5164 34.5539 7.33554 34.8179 7.05133 35.425C6.68961 36.1641 6.58626 36.5865 6.53459 37.5368C6.48291 38.5399 6.58626 39.1734 6.87047 40.1237C7.12884 40.9684 7.41305 41.5228 8.11066 42.605C8.70491 43.5553 9.06664 44.2681 9.06664 44.532C9.06664 44.7432 9.11831 44.7432 10.0485 44.532C12.2705 44.0041 14.1049 43.1066 15.1125 41.9979C15.7326 41.3116 15.8877 40.942 15.8877 39.9917C15.8877 39.3846 15.8618 39.2526 15.7068 38.883C15.4484 38.3023 14.9575 37.8272 13.8982 37.088C12.503 36.1113 11.9087 35.3194 11.7537 34.2635C11.6245 33.366 11.7795 32.7589 12.5547 31.0959C13.3556 29.3801 13.5623 28.6673 13.6915 26.9251C13.769 25.8164 13.8982 25.3677 14.2082 25.0245C14.5441 24.655 14.8283 24.523 15.6293 24.4174C16.947 24.2326 17.7996 23.8894 18.4714 23.2295C19.0656 22.6752 19.324 22.1208 19.3499 21.3025L19.3757 20.6954L19.0398 20.3258C17.8255 18.9004 1.00542 0 0.927907 0C0.90207 0 1.31547 0.501546 1.80637 1.13508ZM9.7384 38.6719C10.0226 38.1703 9.86759 37.5368 9.40252 37.22C8.96329 36.9296 8.29152 37.0616 8.29152 37.4576C8.29152 37.5632 8.34319 37.6688 8.49822 37.7216C8.73075 37.8535 8.75659 37.9855 8.57573 38.2759C8.39487 38.5663 8.39487 38.8302 8.6274 39.015C8.98912 39.3054 9.48003 39.147 9.7384 38.6719Z" fill="#FF007A"/>
<path fill-rule="evenodd" clip-rule="evenodd" d="M20.2023 24.7891C19.5822 24.9739 18.9879 25.6602 18.8071 26.3466C18.7037 26.7689 18.7554 27.5344 18.9363 27.772C19.2205 28.1416 19.4788 28.2472 20.2023 28.2472C21.6233 28.2472 22.8377 27.6136 22.9669 26.8481C23.0961 26.2146 22.5535 25.3435 21.8042 24.9475C21.4166 24.7363 20.6157 24.6572 20.2023 24.7891ZM21.8559 26.109C22.0626 25.7922 21.985 25.4491 21.5975 25.2115C20.8999 24.7627 19.8406 25.1323 19.8406 25.8186C19.8406 26.1618 20.3831 26.5313 20.8999 26.5313C21.2358 26.5313 21.7008 26.3202 21.8559 26.109Z" fill="#FF007A"/>
</svg>
