<svg width="26" height="31" viewBox="0 0 26 31" fill="none" xmlns="http://www.w3.org/2000/svg">
<path fill-rule="evenodd" clip-rule="evenodd" d="M20.3508 7.75907C21.0139 7.11299 21.5981 6.39788 22.0679 5.75977L22.3066 6.19337C23.0747 7.6772 23.4738 9.15506 23.4738 10.8182L23.4722 13.4575L23.4866 14.8256C23.5422 18.1844 24.2949 21.5827 26 24.6926L22.4326 21.9151L19.9083 25.87L17.2565 23.4597L13.0188 30.0994L8.78116 23.4598L6.12939 25.8701L3.60516 21.9152L0.0375977 24.6927C1.74267 21.5828 2.49537 18.1845 2.55111 14.8257L2.56553 13.4576L2.56389 10.8183C2.56389 9.15506 2.9629 7.6772 3.73127 6.19347L3.96977 5.75986C4.43957 6.39798 5.02372 7.11299 5.6869 7.75917L5.47982 8.17446C5.0775 8.98109 4.94429 9.883 5.25769 10.7408C5.45972 11.2932 5.82845 11.767 6.30381 12.1287C6.76537 12.4799 7.31161 12.7167 7.8835 12.841C8.25604 12.922 8.63559 12.9553 9.01266 12.944C8.92468 13.4255 8.88625 13.925 8.88378 14.4339L5.51855 16.3105L8.11541 17.716C8.32297 17.8283 8.52056 17.9571 8.70616 18.1008C10.8471 19.9568 12.1343 25.4474 13.0189 28.1293C13.9036 25.4474 15.1907 19.9568 17.3318 18.1008C17.5173 17.957 17.7149 17.8283 17.9225 17.716L20.5194 16.3105L17.154 14.4339C17.1516 13.925 17.1131 13.4255 17.0252 12.944C17.4022 12.9553 17.7818 12.922 18.1543 12.841C18.7262 12.7167 19.2726 12.4799 19.734 12.1287C20.2093 11.767 20.5781 11.2932 20.78 10.7408C21.0935 9.883 20.9602 8.98119 20.558 8.17446L20.3508 7.75907Z" fill="black"/>
<path fill-rule="evenodd" clip-rule="evenodd" d="M15.6784 10.9271C16.6239 10.4719 17.8269 9.80188 19.0314 8.88385C19.2854 9.39305 19.3132 9.83739 19.1823 10.1962C19.0896 10.4491 18.9149 10.669 18.6851 10.844C18.4363 11.0331 18.1256 11.1707 17.7821 11.2451C17.1304 11.3869 16.3694 11.3041 15.6784 10.9271ZM15.8424 15.591L17.0939 16.289C14.5385 17.6719 13.8438 20.2396 13.0185 22.7407C12.1934 20.2396 11.4986 17.6719 8.94325 16.289L10.1948 15.591C10.3159 15.5468 10.4194 15.4668 10.4904 15.3623C10.5615 15.2579 10.5965 15.1344 10.5904 15.0096C10.4758 12.6673 11.1308 11.6315 12.0143 10.9811C12.3312 10.7482 12.6772 10.6312 13.0185 10.6312C13.3598 10.6312 13.7058 10.7482 14.0228 10.9811C14.9064 11.6315 15.5614 12.6673 15.4467 15.0096C15.4407 15.1344 15.4757 15.2579 15.5467 15.3623C15.6178 15.4668 15.7213 15.5468 15.8424 15.591ZM13.0185 0.296875C14.4652 0.334376 15.9155 0.605539 17.1742 1.13304C18.0458 1.4988 18.859 1.98194 19.5955 2.55968C19.928 2.8205 20.2019 3.07246 20.5035 3.36252C21.3171 3.38968 22.5061 2.517 23.0582 1.70043C22.1082 4.70749 17.773 8.25856 14.7718 9.61736C14.7706 9.61686 14.7698 9.61617 14.7688 9.61557C14.2302 9.21848 13.6244 9.01993 13.0185 9.01993C12.4126 9.01993 11.8069 9.21848 11.2683 9.61557C11.2674 9.61607 11.2666 9.61696 11.2653 9.61736C8.264 8.25856 3.929 4.70749 2.979 1.70043C3.53091 2.517 4.71993 3.38968 5.53352 3.36252C5.83528 3.07256 6.10912 2.8205 6.44159 2.55968C7.17801 1.98194 7.9913 1.4988 8.86289 1.13304C10.1217 0.605539 11.5719 0.334376 13.0185 0.296875ZM10.3586 10.9271C9.41325 10.4719 8.21012 9.80188 7.00575 8.88385C6.7518 9.39305 6.72398 9.83739 6.85472 10.1962C6.94754 10.4491 7.12228 10.669 7.35192 10.844C7.60083 11.0331 7.91155 11.1707 8.25504 11.2451C8.90678 11.3869 9.66762 11.3041 10.3586 10.9271Z" fill="black"/>
</svg>
