<svg width="16" height="16" viewBox="0 0 16 16" fill="none" xmlns="http://www.w3.org/2000/svg">
<path d="M12 1.33331C11.4 1.33331 10.6667 1.99998 10.6667 2.66665H5.33337C5.33337 1.99998 4.60004 1.33331 4.00004 1.33331H1.33337V7.33331C1.33337 7.99998 2.00004 8.66665 2.66671 8.66665H4.13337C4.40004 9.99998 5.26671 11.1333 7.33337 11.3333V12.72C5.33337 13.0266 5.33337 14.6666 5.33337 14.6666H10.6667C10.6667 14.6666 10.6667 13.0266 8.66671 12.72V11.3333C10.7334 11.1333 11.6 9.99998 11.8667 8.66665H13.3334C14 8.66665 14.6667 7.99998 14.6667 7.33331V1.33331H12ZM4.00004 7.33331H2.66671V2.66665H4.00004V7.33331ZM13.3334 7.33331H12V2.66665H13.3334V7.33331Z" fill="#64748B"/>
</svg>
