<svg width="20" height="14" viewBox="0 0 20 14" fill="none" xmlns="http://www.w3.org/2000/svg">
<path d="M12.4999 0.333374C13.8185 0.333374 15.1074 0.724367 16.2037 1.45691C17.3001 2.18945 18.1546 3.23064 18.6591 4.44882C19.1637 5.66699 19.2957 7.00744 19.0385 8.30064C18.7813 9.59385 18.1463 10.7817 17.214 11.7141C16.2816 12.6464 15.0938 13.2814 13.8005 13.5386C12.5073 13.7958 11.1669 13.6638 9.94872 13.1592C8.73055 12.6547 7.68935 11.8002 6.95681 10.7038C6.22427 9.60751 5.83328 8.31858 5.83328 7.00004C5.83328 5.23193 6.53566 3.53624 7.7859 2.286C9.03614 1.03575 10.7318 0.333374 12.4999 0.333374ZM2.49994 7.00004C2.50112 8.03304 2.82222 9.04031 3.41911 9.88341C4.01599 10.7265 4.85936 11.364 5.83328 11.7084V13.45C4.40662 13.0772 3.14384 12.2418 2.24257 11.0747C1.34131 9.9076 0.852417 8.47463 0.852417 7.00004C0.852417 5.52546 1.34131 4.09248 2.24257 2.92538C3.14384 1.75828 4.40662 0.922921 5.83328 0.550041V2.29171C4.85936 2.63604 4.01599 3.27357 3.41911 4.11667C2.82222 4.95977 2.50112 5.96704 2.49994 7.00004Z" fill="#64748B"/>
</svg>
