<svg width="30" height="30" viewBox="0 0 30 30" fill="none" xmlns="http://www.w3.org/2000/svg">
<path d="M29.9983 14.8412C29.9983 17.6047 30.0021 20.3682 29.9983 23.128C29.9983 23.9642 29.9346 24.7928 29.7659 25.614C29.4996 26.8964 28.7947 27.8938 27.8048 28.715C27.0061 29.375 26.0799 29.7312 25.06 29.8624C24.3401 29.9562 23.6164 29.9936 22.8927 29.9936C17.5119 29.9936 12.1274 29.9974 6.7466 29.9899C5.94792 29.9899 5.15299 29.9187 4.36931 29.7537C3.45814 29.5624 2.67071 29.1312 1.98077 28.5125C1.24583 27.8526 0.683378 27.0764 0.383404 26.124C0.210919 25.5803 0.128426 25.0216 0.0796806 24.4554C0.000937422 23.5742 0.000937419 22.6893 0.000937419 21.8006C0.000937419 16.7573 -0.00281226 11.7177 0.00468709 6.67442C0.00468709 5.74075 0.0871799 4.81083 0.353407 3.90716C0.540891 3.26597 0.878361 2.70352 1.29832 2.18606C1.92077 1.41363 2.68195 0.821179 3.61187 0.45746C4.14058 0.251228 4.69553 0.149987 5.25798 0.0937419C6.06416 0.00749935 6.87409 0 7.68027 0C12.7423 0 17.8006 0 22.8627 0C23.4477 0 24.0326 0 24.6176 0.0712438C25.7237 0.198733 26.7774 0.476209 27.6773 1.16615C28.7722 2.00608 29.4921 3.08973 29.7771 4.45086C29.9271 5.1633 29.9983 5.88324 29.9983 6.60693C29.9983 9.35169 29.9983 12.0964 29.9983 14.8412Z" fill="#2B6AFF"/>
<path d="M18.4081 13.7501C18.2468 14.0051 18.0818 14.2601 17.9206 14.515C17.3131 15.475 16.7244 16.4536 16.132 17.4248C15.9445 17.7323 15.7195 18.0097 15.4233 18.2272C14.5234 18.8947 13.5935 18.216 13.4847 17.4323C13.4135 16.9223 13.361 16.4161 13.3572 15.9024C13.3572 15.31 13.3572 14.7138 13.3572 14.1213C13.3572 14.0351 13.3497 13.9488 13.346 13.8626C13.3047 13.8626 13.301 13.8926 13.2897 13.9151C12.1686 15.7712 10.9874 17.5935 9.84005 19.4384C9.7688 19.5509 9.70131 19.6633 9.63006 19.7721C9.59632 19.8246 9.59632 19.8546 9.64131 19.9033C10.8037 21.1032 12.1798 21.9131 13.8447 22.1719C15.8658 22.4831 17.7031 22.0294 19.3455 20.807C19.5442 20.657 19.7242 20.4845 19.9229 20.3345C20.1666 20.1471 20.4329 20.0308 20.7478 20.1058C20.7928 20.1171 20.8303 20.1321 20.8641 20.1621C20.9391 20.2295 21.0103 20.3045 21.0928 20.3683C21.3365 20.5483 21.3515 20.792 21.2841 21.0582C21.2016 21.3732 20.9841 21.5907 20.7441 21.7894C19.6267 22.7156 18.3743 23.3755 16.9494 23.6755C14.2197 24.2529 11.7336 23.7017 9.53632 21.9769C7.86397 20.6608 6.80281 18.9397 6.33785 16.8586C6.09787 15.7787 6.07162 14.6913 6.23286 13.5964C6.73157 10.1917 9.16136 7.61939 11.8761 6.58448C12.761 6.24701 13.6722 6.06702 14.6171 6.03328C15.6408 5.99953 16.6495 6.08952 17.6281 6.40449C18.9555 6.82821 20.1217 7.51815 21.1228 8.48556C22.4914 9.80545 23.3464 11.4028 23.7101 13.2627C23.8863 14.1701 23.9276 15.0887 23.7813 16.0037C23.6051 17.1061 22.7089 18.1972 21.5015 18.4297C20.3054 18.6584 19.188 18.0397 18.7043 16.8698C18.4943 16.3674 18.4381 15.8387 18.4381 15.2987C18.4381 14.8038 18.4381 14.3088 18.4381 13.8139C18.4381 13.7951 18.4381 13.7801 18.4381 13.7614C18.4306 13.7614 18.4231 13.7539 18.4118 13.7539" fill="#FEFEFE"/>
<path d="M14.9772 16.1424C14.9772 15.8949 14.9772 15.6474 14.9772 15.3999C14.9772 14.3763 14.9809 13.3564 14.9697 12.3327C14.9659 11.9202 14.8722 11.5228 14.5685 11.2153C14.2985 10.9378 13.8785 10.8628 13.5223 11.0128C13.2673 11.1216 13.0724 11.2978 12.9149 11.5228C12.5549 12.0365 12.2512 12.5839 11.91 13.1089C10.8113 14.785 9.78764 16.5098 8.70398 18.1934C8.61774 18.3284 8.5465 18.3322 8.46775 18.1784C8.37776 17.9985 8.29902 17.8147 8.22777 17.6272C7.91655 16.8248 7.74782 15.9961 7.73657 15.1337C7.71407 13.3451 8.21278 11.729 9.34143 10.3341C10.4476 8.9655 11.8687 8.07307 13.6086 7.75435C16.1208 7.29314 18.2994 7.99433 20.118 9.76793C21.2466 10.8703 21.9066 12.2427 22.1653 13.7988C22.2628 14.3763 22.2891 14.9575 22.2253 15.5387C22.1803 15.9624 22.0078 16.3374 21.6666 16.6111C21.3854 16.8361 21.0629 16.9636 20.7067 16.8211C20.3317 16.6711 20.1367 16.3636 20.073 15.9736C19.9755 15.3999 19.9943 14.8225 20.0018 14.245C20.0093 13.7501 20.043 13.2514 19.9343 12.7677C19.8105 12.2015 19.4805 11.8003 18.8956 11.654C18.6106 11.5828 18.3519 11.6765 18.1044 11.8077C17.7294 12.0065 17.4482 12.3102 17.2082 12.6514C16.7808 13.2551 16.4133 13.8963 16.0196 14.5263C15.6896 15.0512 15.3634 15.5724 15.0334 16.0974C15.0222 16.1161 15.0109 16.1311 14.9997 16.1499H14.9659L14.9772 16.1424Z" fill="#2B6AFF"/>
</svg>
