<svg width="138" height="36" viewBox="0 0 138 36" fill="none" xmlns="http://www.w3.org/2000/svg">
<path d="M36.9255 18V4.90909H41.5917C42.6102 4.90909 43.4539 5.09446 44.123 5.4652C44.792 5.83594 45.2927 6.34304 45.6251 6.98651C45.9575 7.62571 46.1237 8.34588 46.1237 9.14702C46.1237 9.95241 45.9553 10.6768 45.6187 11.3203C45.2863 11.9595 44.7835 12.4666 44.1102 12.8416C43.4411 13.2124 42.5995 13.3977 41.5853 13.3977H38.3765V11.723H41.4063C42.0498 11.723 42.5718 11.6122 42.9724 11.3906C43.373 11.1648 43.667 10.858 43.8545 10.4702C44.042 10.0824 44.1357 9.64133 44.1357 9.14702C44.1357 8.6527 44.042 8.21378 43.8545 7.83026C43.667 7.44673 43.3708 7.14631 42.966 6.92898C42.5654 6.71165 42.037 6.60298 41.3808 6.60298H38.9007V18H36.9255ZM59.8106 11.4545C59.8106 12.8523 59.555 14.054 59.0436 15.0597C58.5322 16.0611 57.8312 16.8324 56.9406 17.3736C56.0542 17.9105 55.0464 18.179 53.9172 18.179C52.7836 18.179 51.7716 17.9105 50.8809 17.3736C49.9946 16.8324 49.2957 16.0589 48.7844 15.0533C48.273 14.0476 48.0173 12.848 48.0173 11.4545C48.0173 10.0568 48.273 8.85724 48.7844 7.85582C49.2957 6.85014 49.9946 6.07883 50.8809 5.5419C51.7716 5.00071 52.7836 4.73011 53.9172 4.73011C55.0464 4.73011 56.0542 5.00071 56.9406 5.5419C57.8312 6.07883 58.5322 6.85014 59.0436 7.85582C59.555 8.85724 59.8106 10.0568 59.8106 11.4545ZM57.8547 11.4545C57.8547 10.3892 57.6821 9.49219 57.3369 8.76349C56.996 8.03054 56.5273 7.47656 55.9307 7.10156C55.3383 6.7223 54.6672 6.53267 53.9172 6.53267C53.1629 6.53267 52.4896 6.7223 51.8973 7.10156C51.305 7.47656 50.8362 8.03054 50.491 8.76349C50.1501 9.49219 49.9797 10.3892 49.9797 11.4545C49.9797 12.5199 50.1501 13.419 50.491 14.152C50.8362 14.8807 51.305 15.4347 51.8973 15.8139C52.4896 16.1889 53.1629 16.3764 53.9172 16.3764C54.6672 16.3764 55.3383 16.1889 55.9307 15.8139C56.5273 15.4347 56.996 14.8807 57.3369 14.152C57.6821 13.419 57.8547 12.5199 57.8547 11.4545ZM62.2732 18V4.90909H64.2483V11.1605H64.4081L69.8989 4.90909H72.3854L67.1056 10.8026L72.4046 18H70.0267L65.7952 12.1513L64.2483 13.9283V18H62.2732ZM73.5807 6.60938V4.90909H83.7121V6.60938H79.6276V18H77.6588V6.60938H73.5807Z" fill="#171C1F"/>
<path d="M36.54 34C36.4373 34 36.358 33.972 36.302 33.916C36.246 33.8507 36.218 33.7713 36.218 33.678V24.536C36.218 24.4333 36.246 24.354 36.302 24.298C36.358 24.2327 36.4373 24.2 36.54 24.2H40.096C40.7867 24.2 41.384 24.312 41.888 24.536C42.4013 24.76 42.798 25.096 43.078 25.544C43.358 25.9827 43.498 26.5333 43.498 27.196C43.498 27.8587 43.358 28.4093 43.078 28.848C42.798 29.2867 42.4013 29.618 41.888 29.842C41.384 30.066 40.7867 30.178 40.096 30.178H37.618V33.678C37.618 33.7713 37.5853 33.8507 37.52 33.916C37.464 33.972 37.3847 34 37.282 34H36.54ZM37.604 29.002H40.026C40.7167 29.002 41.2347 28.848 41.58 28.54C41.9253 28.232 42.098 27.784 42.098 27.196C42.098 26.6173 41.93 26.1693 41.594 25.852C41.258 25.5347 40.7353 25.376 40.026 25.376H37.604V29.002ZM47.9047 34.14C47.1954 34.14 46.6027 34.0047 46.1267 33.734C45.6507 33.4633 45.2867 33.09 45.0347 32.614C44.7827 32.1287 44.6427 31.578 44.6147 30.962C44.6054 30.8033 44.6007 30.6027 44.6007 30.36C44.6007 30.108 44.6054 29.9073 44.6147 29.758C44.6427 29.1327 44.7827 28.582 45.0347 28.106C45.2961 27.63 45.6647 27.2567 46.1407 26.986C46.6167 26.7153 47.2047 26.58 47.9047 26.58C48.6047 26.58 49.1927 26.7153 49.6687 26.986C50.1447 27.2567 50.5087 27.63 50.7607 28.106C51.0221 28.582 51.1667 29.1327 51.1947 29.758C51.2041 29.9073 51.2087 30.108 51.2087 30.36C51.2087 30.6027 51.2041 30.8033 51.1947 30.962C51.1667 31.578 51.0267 32.1287 50.7747 32.614C50.5227 33.09 50.1587 33.4633 49.6827 33.734C49.2067 34.0047 48.6141 34.14 47.9047 34.14ZM47.9047 33.062C48.4834 33.062 48.9454 32.88 49.2907 32.516C49.6361 32.1427 49.8227 31.6013 49.8507 30.892C49.8601 30.752 49.8647 30.5747 49.8647 30.36C49.8647 30.1453 49.8601 29.968 49.8507 29.828C49.8227 29.1187 49.6361 28.582 49.2907 28.218C48.9454 27.8447 48.4834 27.658 47.9047 27.658C47.3261 27.658 46.8594 27.8447 46.5047 28.218C46.1594 28.582 45.9774 29.1187 45.9587 29.828C45.9494 29.968 45.9447 30.1453 45.9447 30.36C45.9447 30.5747 45.9494 30.752 45.9587 30.892C45.9774 31.6013 46.1594 32.1427 46.5047 32.516C46.8594 32.88 47.3261 33.062 47.9047 33.062ZM55.9018 34.14C55.2391 34.14 54.6651 34.014 54.1798 33.762C53.7038 33.5007 53.3351 33.132 53.0738 32.656C52.8124 32.1707 52.6724 31.592 52.6538 30.92C52.6444 30.78 52.6398 30.5933 52.6398 30.36C52.6398 30.1267 52.6444 29.94 52.6538 29.8C52.6724 29.128 52.8124 28.554 53.0738 28.078C53.3351 27.5927 53.7038 27.224 54.1798 26.972C54.6651 26.7107 55.2391 26.58 55.9018 26.58C56.4431 26.58 56.9051 26.6547 57.2878 26.804C57.6798 26.9533 58.0018 27.1447 58.2538 27.378C58.5058 27.6113 58.6924 27.8633 58.8138 28.134C58.9444 28.4047 59.0144 28.6613 59.0238 28.904C59.0331 28.9973 59.0051 29.072 58.9398 29.128C58.8744 29.184 58.7951 29.212 58.7018 29.212H58.0298C57.9364 29.212 57.8664 29.1933 57.8198 29.156C57.7731 29.1093 57.7264 29.0347 57.6798 28.932C57.5118 28.4747 57.2831 28.1527 56.9938 27.966C56.7044 27.7793 56.3451 27.686 55.9158 27.686C55.3558 27.686 54.8984 27.8587 54.5438 28.204C54.1984 28.5493 54.0118 29.1047 53.9838 29.87C53.9744 30.206 53.9744 30.5327 53.9838 30.85C54.0118 31.6247 54.1984 32.1847 54.5438 32.53C54.8984 32.866 55.3558 33.034 55.9158 33.034C56.3451 33.034 56.7044 32.9407 56.9938 32.754C57.2831 32.5673 57.5118 32.2453 57.6798 31.788C57.7264 31.6853 57.7731 31.6153 57.8198 31.578C57.8664 31.5313 57.9364 31.508 58.0298 31.508H58.7018C58.7951 31.508 58.8744 31.536 58.9398 31.592C59.0051 31.648 59.0331 31.7227 59.0238 31.816C59.0144 32.012 58.9724 32.2127 58.8978 32.418C58.8231 32.6233 58.7018 32.8333 58.5338 33.048C58.3751 33.2533 58.1744 33.44 57.9318 33.608C57.6891 33.7667 57.3951 33.8973 57.0498 34C56.7138 34.0933 56.3311 34.14 55.9018 34.14ZM61.0224 34C60.9291 34 60.8497 33.972 60.7844 33.916C60.7284 33.8507 60.7004 33.7713 60.7004 33.678V24.382C60.7004 24.2887 60.7284 24.214 60.7844 24.158C60.8497 24.0927 60.9291 24.06 61.0224 24.06H61.6804C61.7737 24.06 61.8484 24.0927 61.9044 24.158C61.9697 24.214 62.0024 24.2887 62.0024 24.382V29.254L64.7604 26.958C64.8724 26.8647 64.9564 26.804 65.0124 26.776C65.0777 26.7387 65.1804 26.72 65.3204 26.72H66.0624C66.1464 26.72 66.2164 26.748 66.2724 26.804C66.3284 26.86 66.3564 26.93 66.3564 27.014C66.3564 27.0513 66.3424 27.0933 66.3144 27.14C66.2957 27.1867 66.2537 27.2333 66.1884 27.28L62.9544 29.968L66.5384 33.454C66.6504 33.5473 66.7064 33.6313 66.7064 33.706C66.7064 33.79 66.6784 33.86 66.6224 33.916C66.5664 33.972 66.4964 34 66.4124 34H65.6844C65.5444 34 65.4417 33.986 65.3764 33.958C65.3111 33.9207 65.2271 33.8553 65.1244 33.762L62.0024 30.78V33.678C62.0024 33.7713 61.9697 33.8507 61.9044 33.916C61.8484 33.972 61.7737 34 61.6804 34H61.0224ZM70.4613 34.14C69.5 34.14 68.7347 33.846 68.1653 33.258C67.596 32.6607 67.2833 31.8487 67.2273 30.822C67.218 30.7007 67.2133 30.5467 67.2133 30.36C67.2133 30.164 67.218 30.0053 67.2273 29.884C67.2647 29.2213 67.4187 28.6427 67.6893 28.148C67.96 27.644 68.3287 27.2567 68.7953 26.986C69.2713 26.7153 69.8267 26.58 70.4613 26.58C71.1707 26.58 71.7633 26.7293 72.2393 27.028C72.7247 27.3267 73.0933 27.7513 73.3453 28.302C73.5973 28.8527 73.7233 29.4967 73.7233 30.234V30.472C73.7233 30.5747 73.6907 30.654 73.6253 30.71C73.5693 30.766 73.4947 30.794 73.4013 30.794H68.5573C68.5573 30.8033 68.5573 30.822 68.5573 30.85C68.5573 30.878 68.5573 30.9013 68.5573 30.92C68.576 31.3027 68.66 31.662 68.8093 31.998C68.9587 32.3247 69.1733 32.5907 69.4533 32.796C69.7333 33.0013 70.0693 33.104 70.4613 33.104C70.7973 33.104 71.0773 33.0527 71.3013 32.95C71.5253 32.8473 71.7073 32.7353 71.8473 32.614C71.9873 32.4833 72.0807 32.3853 72.1273 32.32C72.2113 32.1987 72.2767 32.1287 72.3233 32.11C72.37 32.082 72.4447 32.068 72.5473 32.068H73.2193C73.3127 32.068 73.3873 32.096 73.4433 32.152C73.5087 32.1987 73.5367 32.2687 73.5273 32.362C73.518 32.502 73.4433 32.6747 73.3033 32.88C73.1633 33.076 72.9627 33.272 72.7013 33.468C72.44 33.664 72.1227 33.8273 71.7493 33.958C71.376 34.0793 70.9467 34.14 70.4613 34.14ZM68.5573 29.828H72.3933V29.786C72.3933 29.366 72.314 28.9927 72.1553 28.666C72.006 28.3393 71.7867 28.0827 71.4973 27.896C71.208 27.7 70.8627 27.602 70.4613 27.602C70.06 27.602 69.7147 27.7 69.4253 27.896C69.1453 28.0827 68.9307 28.3393 68.7813 28.666C68.632 28.9927 68.5573 29.366 68.5573 29.786V29.828ZM78.1983 34C77.6756 34 77.251 33.902 76.9243 33.706C76.5976 33.5007 76.3596 33.216 76.2103 32.852C76.061 32.4787 75.9863 32.04 75.9863 31.536V27.84H74.8943C74.801 27.84 74.7216 27.812 74.6563 27.756C74.6003 27.6907 74.5723 27.6113 74.5723 27.518V27.042C74.5723 26.9487 74.6003 26.874 74.6563 26.818C74.7216 26.7527 74.801 26.72 74.8943 26.72H75.9863V24.382C75.9863 24.2887 76.0143 24.214 76.0703 24.158C76.1356 24.0927 76.215 24.06 76.3083 24.06H76.9663C77.0596 24.06 77.1343 24.0927 77.1903 24.158C77.2556 24.214 77.2883 24.2887 77.2883 24.382V26.72H79.0243C79.1176 26.72 79.1923 26.7527 79.2483 26.818C79.3136 26.874 79.3463 26.9487 79.3463 27.042V27.518C79.3463 27.6113 79.3136 27.6907 79.2483 27.756C79.1923 27.812 79.1176 27.84 79.0243 27.84H77.2883V31.438C77.2883 31.8767 77.363 32.222 77.5123 32.474C77.6616 32.726 77.9276 32.852 78.3103 32.852H79.1643C79.2576 32.852 79.3323 32.8847 79.3883 32.95C79.4536 33.006 79.4863 33.0807 79.4863 33.174V33.678C79.4863 33.7713 79.4536 33.8507 79.3883 33.916C79.3323 33.972 79.2576 34 79.1643 34H78.1983ZM84.7607 34C84.658 34 84.5787 33.972 84.5227 33.916C84.4667 33.8507 84.4387 33.7713 84.4387 33.678V24.536C84.4387 24.4333 84.4667 24.354 84.5227 24.298C84.5787 24.2327 84.658 24.2 84.7607 24.2H85.4047C85.5167 24.2 85.6007 24.228 85.6567 24.284C85.7127 24.3307 85.7454 24.368 85.7547 24.396L90.4027 31.536V24.536C90.4027 24.4333 90.4307 24.354 90.4867 24.298C90.5427 24.2327 90.622 24.2 90.7247 24.2H91.3967C91.4994 24.2 91.5787 24.2327 91.6347 24.298C91.7 24.354 91.7327 24.4333 91.7327 24.536V33.664C91.7327 33.7573 91.7 33.8367 91.6347 33.902C91.5787 33.9673 91.504 34 91.4107 34H90.7387C90.636 34 90.5567 33.972 90.5007 33.916C90.454 33.86 90.4214 33.8227 90.4027 33.804L85.7687 26.734V33.678C85.7687 33.7713 85.736 33.8507 85.6707 33.916C85.6147 33.972 85.5354 34 85.4327 34H84.7607ZM96.8754 34.14C95.9141 34.14 95.1487 33.846 94.5794 33.258C94.0101 32.6607 93.6974 31.8487 93.6414 30.822C93.6321 30.7007 93.6274 30.5467 93.6274 30.36C93.6274 30.164 93.6321 30.0053 93.6414 29.884C93.6787 29.2213 93.8327 28.6427 94.1034 28.148C94.3741 27.644 94.7427 27.2567 95.2094 26.986C95.6854 26.7153 96.2407 26.58 96.8754 26.58C97.5847 26.58 98.1774 26.7293 98.6534 27.028C99.1387 27.3267 99.5074 27.7513 99.7594 28.302C100.011 28.8527 100.137 29.4967 100.137 30.234V30.472C100.137 30.5747 100.105 30.654 100.039 30.71C99.9834 30.766 99.9087 30.794 99.8154 30.794H94.9714C94.9714 30.8033 94.9714 30.822 94.9714 30.85C94.9714 30.878 94.9714 30.9013 94.9714 30.92C94.9901 31.3027 95.0741 31.662 95.2234 31.998C95.3727 32.3247 95.5874 32.5907 95.8674 32.796C96.1474 33.0013 96.4834 33.104 96.8754 33.104C97.2114 33.104 97.4914 33.0527 97.7154 32.95C97.9394 32.8473 98.1214 32.7353 98.2614 32.614C98.4014 32.4833 98.4947 32.3853 98.5414 32.32C98.6254 32.1987 98.6907 32.1287 98.7374 32.11C98.7841 32.082 98.8587 32.068 98.9614 32.068H99.6334C99.7267 32.068 99.8014 32.096 99.8574 32.152C99.9227 32.1987 99.9507 32.2687 99.9414 32.362C99.9321 32.502 99.8574 32.6747 99.7174 32.88C99.5774 33.076 99.3767 33.272 99.1154 33.468C98.8541 33.664 98.5367 33.8273 98.1634 33.958C97.7901 34.0793 97.3607 34.14 96.8754 34.14ZM94.9714 29.828H98.8074V29.786C98.8074 29.366 98.7281 28.9927 98.5694 28.666C98.4201 28.3393 98.2007 28.0827 97.9114 27.896C97.6221 27.7 97.2767 27.602 96.8754 27.602C96.4741 27.602 96.1287 27.7 95.8394 27.896C95.5594 28.0827 95.3447 28.3393 95.1954 28.666C95.0461 28.9927 94.9714 29.366 94.9714 29.786V29.828ZM104.612 34C104.09 34 103.665 33.902 103.338 33.706C103.012 33.5007 102.774 33.216 102.624 32.852C102.475 32.4787 102.4 32.04 102.4 31.536V27.84H101.308C101.215 27.84 101.136 27.812 101.07 27.756C101.014 27.6907 100.986 27.6113 100.986 27.518V27.042C100.986 26.9487 101.014 26.874 101.07 26.818C101.136 26.7527 101.215 26.72 101.308 26.72H102.4V24.382C102.4 24.2887 102.428 24.214 102.484 24.158C102.55 24.0927 102.629 24.06 102.722 24.06H103.38C103.474 24.06 103.548 24.0927 103.604 24.158C103.67 24.214 103.702 24.2887 103.702 24.382V26.72H105.438C105.532 26.72 105.606 26.7527 105.662 26.818C105.728 26.874 105.76 26.9487 105.76 27.042V27.518C105.76 27.6113 105.728 27.6907 105.662 27.756C105.606 27.812 105.532 27.84 105.438 27.84H103.702V31.438C103.702 31.8767 103.777 32.222 103.926 32.474C104.076 32.726 104.342 32.852 104.724 32.852H105.578C105.672 32.852 105.746 32.8847 105.802 32.95C105.868 33.006 105.9 33.0807 105.9 33.174V33.678C105.9 33.7713 105.868 33.8507 105.802 33.916C105.746 33.972 105.672 34 105.578 34H104.612ZM109.171 34C109.05 34 108.956 33.972 108.891 33.916C108.826 33.8507 108.77 33.762 108.723 33.65L106.735 27.154C106.716 27.1073 106.707 27.0607 106.707 27.014C106.707 26.93 106.735 26.86 106.791 26.804C106.856 26.748 106.926 26.72 107.001 26.72H107.617C107.72 26.72 107.799 26.748 107.855 26.804C107.911 26.86 107.948 26.9113 107.967 26.958L109.521 32.236L111.187 27.014C111.206 26.9487 111.243 26.8833 111.299 26.818C111.364 26.7527 111.458 26.72 111.579 26.72H112.055C112.176 26.72 112.27 26.7527 112.335 26.818C112.4 26.8833 112.438 26.9487 112.447 27.014L114.113 32.236L115.667 26.958C115.676 26.9113 115.709 26.86 115.765 26.804C115.821 26.748 115.9 26.72 116.003 26.72H116.619C116.703 26.72 116.773 26.748 116.829 26.804C116.885 26.86 116.913 26.93 116.913 27.014C116.913 27.0607 116.904 27.1073 116.885 27.154L114.897 33.65C114.869 33.762 114.818 33.8507 114.743 33.916C114.678 33.972 114.58 34 114.449 34H113.903C113.782 34 113.679 33.972 113.595 33.916C113.52 33.8507 113.469 33.762 113.441 33.65L111.817 28.638L110.193 33.65C110.156 33.762 110.1 33.8507 110.025 33.916C109.95 33.972 109.848 34 109.717 34H109.171ZM121.254 34.14C120.545 34.14 119.952 34.0047 119.476 33.734C119 33.4633 118.636 33.09 118.384 32.614C118.132 32.1287 117.992 31.578 117.964 30.962C117.955 30.8033 117.95 30.6027 117.95 30.36C117.95 30.108 117.955 29.9073 117.964 29.758C117.992 29.1327 118.132 28.582 118.384 28.106C118.646 27.63 119.014 27.2567 119.49 26.986C119.966 26.7153 120.554 26.58 121.254 26.58C121.954 26.58 122.542 26.7153 123.018 26.986C123.494 27.2567 123.858 27.63 124.11 28.106C124.372 28.582 124.516 29.1327 124.544 29.758C124.554 29.9073 124.558 30.108 124.558 30.36C124.558 30.6027 124.554 30.8033 124.544 30.962C124.516 31.578 124.376 32.1287 124.124 32.614C123.872 33.09 123.508 33.4633 123.032 33.734C122.556 34.0047 121.964 34.14 121.254 34.14ZM121.254 33.062C121.833 33.062 122.295 32.88 122.64 32.516C122.986 32.1427 123.172 31.6013 123.2 30.892C123.21 30.752 123.214 30.5747 123.214 30.36C123.214 30.1453 123.21 29.968 123.2 29.828C123.172 29.1187 122.986 28.582 122.64 28.218C122.295 27.8447 121.833 27.658 121.254 27.658C120.676 27.658 120.209 27.8447 119.854 28.218C119.509 28.582 119.327 29.1187 119.308 29.828C119.299 29.968 119.294 30.1453 119.294 30.36C119.294 30.5747 119.299 30.752 119.308 30.892C119.327 31.6013 119.509 32.1427 119.854 32.516C120.209 32.88 120.676 33.062 121.254 33.062ZM126.633 34C126.54 34 126.461 33.972 126.395 33.916C126.339 33.8507 126.311 33.7713 126.311 33.678V27.056C126.311 26.9627 126.339 26.8833 126.395 26.818C126.461 26.7527 126.54 26.72 126.633 26.72H127.277C127.371 26.72 127.45 26.7527 127.515 26.818C127.581 26.8833 127.613 26.9627 127.613 27.056V27.672C127.8 27.3547 128.057 27.1167 128.383 26.958C128.71 26.7993 129.102 26.72 129.559 26.72H130.119C130.213 26.72 130.287 26.7527 130.343 26.818C130.399 26.874 130.427 26.9487 130.427 27.042V27.616C130.427 27.7093 130.399 27.784 130.343 27.84C130.287 27.896 130.213 27.924 130.119 27.924H129.279C128.775 27.924 128.379 28.0733 128.089 28.372C127.8 28.6613 127.655 29.058 127.655 29.562V33.678C127.655 33.7713 127.623 33.8507 127.557 33.916C127.492 33.972 127.413 34 127.319 34H126.633ZM131.966 34C131.872 34 131.793 33.972 131.728 33.916C131.672 33.8507 131.644 33.7713 131.644 33.678V24.382C131.644 24.2887 131.672 24.214 131.728 24.158C131.793 24.0927 131.872 24.06 131.966 24.06H132.624C132.717 24.06 132.792 24.0927 132.848 24.158C132.913 24.214 132.946 24.2887 132.946 24.382V29.254L135.704 26.958C135.816 26.8647 135.9 26.804 135.956 26.776C136.021 26.7387 136.124 26.72 136.264 26.72H137.006C137.09 26.72 137.16 26.748 137.216 26.804C137.272 26.86 137.3 26.93 137.3 27.014C137.3 27.0513 137.286 27.0933 137.258 27.14C137.239 27.1867 137.197 27.2333 137.132 27.28L133.898 29.968L137.482 33.454C137.594 33.5473 137.65 33.6313 137.65 33.706C137.65 33.79 137.622 33.86 137.566 33.916C137.51 33.972 137.44 34 137.356 34H136.628C136.488 34 136.385 33.986 136.32 33.958C136.254 33.9207 136.17 33.8553 136.068 33.762L132.946 30.78V33.678C132.946 33.7713 132.913 33.8507 132.848 33.916C132.792 33.972 132.717 34 132.624 34H131.966Z" fill="#64748B"/>
<path d="M23.513 5.65085L23.5657 18.9391C23.5657 18.9391 21.6904 17.1203 21.088 16.4937C20.0533 15.4188 18.823 14.3489 18.0061 13.6663C17.2523 13.0362 16.3469 12.6015 15.3769 12.447C15.1421 12.4096 14.9056 12.3892 14.6673 12.3892C13.0336 12.3892 11.691 12.9462 10.5627 14.0942C10.2547 14.4067 9.99092 14.7633 9.7731 15.1454C9.41744 15.7686 9.16898 16.4716 9.05156 17.173C9.03455 17.2732 8.90862 17.786 8.97839 17.8574L6.33558 15.215C6.61977 14.3234 7.05031 13.4761 7.61699 12.7051C8.04073 12.1294 8.54615 11.6335 9.15537 11.192C10.6971 9.91668 12.5078 9.26627 14.5499 9.26627C15.7292 9.26627 16.8404 9.48024 17.8598 9.90139C18.7821 10.241 19.6398 10.7471 20.4226 11.4179V4.01211C18.7413 3.36001 16.9119 3 14.9991 3C6.71507 3 0 9.71629 0 18C0 22.816 2.27012 27.1022 5.79783 29.8465L5.74848 17.55C5.74848 17.55 7.6238 19.3687 8.22622 19.9954C9.26088 21.0703 10.4912 22.1402 11.3081 22.8228C12.0619 23.4528 12.9673 23.8876 13.9373 24.0421C14.1721 24.0795 14.4086 24.0999 14.6469 24.0999C16.2806 24.0999 17.6232 23.5429 18.7515 22.3949C19.0595 22.0824 19.3233 21.7258 19.5411 21.3437C19.8968 20.7205 20.1452 20.0174 20.2626 19.3161C20.2797 19.2159 20.4056 18.703 20.3358 18.6317L22.9786 21.2741C22.6944 22.1656 22.2639 23.013 21.6972 23.784C21.2735 24.3597 20.7681 24.8555 20.1588 25.2971C18.6171 26.5724 16.8064 27.2228 14.7643 27.2228C13.585 27.2228 12.4738 27.0088 11.4544 26.5877C10.5321 26.248 9.6744 25.742 8.8916 25.0712V31.7026C10.7584 32.5364 12.8243 33 15.0009 33C23.2849 33 30 26.2837 30 18C30 12.8766 27.4321 8.35435 23.5147 5.64916L23.513 5.65085Z" fill="#203EA9"/>
</svg>
