<svg width="30" height="30" viewBox="0 0 30 30" fill="none" xmlns="http://www.w3.org/2000/svg">
<path d="M30 14.842C30 17.6057 30 20.3694 30 23.1293C30 23.9655 29.9363 24.7942 29.7675 25.6154C29.5013 26.8979 28.7963 27.8954 27.8063 28.7166C27.0076 29.3766 26.0814 29.7328 25.0614 29.8641C24.3414 29.9578 23.6177 29.9953 22.894 29.9953C17.5129 29.9953 12.1281 29.9953 6.74698 29.9953C5.94825 29.9953 5.15328 29.9241 4.36955 29.7591C3.45833 29.5678 2.67085 29.1366 1.98088 28.5179C1.2459 27.8579 0.683416 27.0816 0.383426 26.1292C0.210931 25.5854 0.128433 25.0267 0.079685 24.4605C0.000937474 23.5793 0.000937471 22.6943 0.000937471 21.8056C0.000937471 16.762 -0.00281241 11.7221 0.00468735 6.67854C0.00468735 5.74482 0.0871847 4.81485 0.353426 3.91113C0.540921 3.2699 0.87841 2.70742 1.2984 2.18993C1.92088 1.41746 2.6821 0.824974 3.61207 0.461236C4.14081 0.254992 4.69579 0.153745 5.25827 0.0974969C6.0645 0.00749976 6.87447 0 7.6807 0H22.864C23.449 0 24.0339 0 24.6189 0.0712478C25.7251 0.198744 26.7789 0.476235 27.6788 1.16621C28.7738 2.00619 29.4938 3.0899 29.7788 4.45111C29.9288 5.16359 30 5.88357 30 6.60729V14.842Z" fill="#171C1F"/>
<path d="M13.763 19.4544V21.6443H10.4743C9.2556 21.6443 8.28438 20.6693 8.28438 19.4544V13.5483H5.85071V11.4184H8.28438V8.31348H10.7818V11.4184H13.8267V13.5483H10.7818V19.4544H13.763Z" fill="white"/>
<path d="M15.7729 21.6481V19.4581H24.1127V21.6481H15.7729Z" fill="#00CF9D"/>
</svg>
